<svg version="1.1" xmlns="http://www.w3.org/2000/svg" xmlns:xlink="http://www.w3.org/1999/xlink" width="206" height="208.89425" viewBox="0,0,206,208.89425"><g transform="translate(-137,-74.10581)"><g data-paper-data="{&quot;isPaintingLayer&quot;:true}" fill-rule="nonzero" stroke-linejoin="miter" stroke-miterlimit="10" stroke-dasharray="" stroke-dashoffset="0" style="mix-blend-mode: normal"><path d="M240,77.00007c56.88533,0 103,46.11467 103,103c0,56.88533 -46.11467,103 -103,103c-56.88533,0 -103,-46.11467 -103,-103c0,-56.88533 46.11467,-103 103,-103z" data-paper-data="{&quot;index&quot;:null}" fill="#86ffc4" stroke="none" stroke-width="0" stroke-linecap="butt"/><path d="M288.72566,205.24801c0.03989,5.1558 -1.83468,9.57501 -5.5838,13.18025c-3.74914,3.64392 -8.29588,5.46593 -13.56065,5.46593h-57.35362c-5.30464,0 -9.81157,-1.82197 -13.56071,-5.46593c-3.74907,-3.64397 -5.62363,-8.06315 -5.62363,-13.18025c0,0 0,-2.10875 0,-4.35914c0,-3.00623 0,-11.45125 0,-20.64575c0,-6.1392 0,-12.61254 0,-18.02408c0,-7.30623 0,-12.67702 0,-12.67702c0,-5.15582 1.87449,-9.57509 5.62363,-13.21904c3.74914,-3.64391 8.2561,-5.46589 13.56071,-5.46589h57.31371c5.30458,0 9.81153,1.82194 13.56065,5.46589c3.74908,3.64398 5.62364,8.06324 5.62364,13.21904c0,0 0,12.29979 0,24.14689c0,7.47404 0,14.76789 0,18.6795c0,5.54533 0,12.8796 0,12.8796z" data-paper-data="{&quot;index&quot;:null}" fill="#55ce93" stroke="none" stroke-width="0" stroke-linecap="butt"/><path d="M266.96078,110.25778c0,19.96618 -11.79642,36.15196 -26.34804,36.15196c-14.55162,0 -26.34804,-16.18578 -26.34804,-36.15196c0,-19.96618 11.79642,-36.15196 26.34804,-36.15196c14.55162,0 26.34804,16.18578 26.34804,36.15196z" data-paper-data="{&quot;index&quot;:null}" fill="#55ce93" stroke="none" stroke-width="0" stroke-linecap="butt"/><path d="M195.88235,122.14503l15.93137,-8.57843" data-paper-data="{&quot;index&quot;:null}" fill="none" stroke="none" stroke-width="0" stroke-linecap="round"/><path d="M177.5,128.27248l62.5,-22.05882l62.5,19.60784" data-paper-data="{&quot;index&quot;:null}" fill="none" stroke="#55ce93" stroke-width="15" stroke-linecap="round"/><path d="M240.61275,166.75289c-8.46025,0 -15.31863,-5.21237 -15.31863,-11.64216c0,-6.42979 6.85838,-11.64216 15.31863,-11.64216c8.46025,0 15.31863,5.21237 15.31863,11.64216c0,6.42979 -6.85838,11.64216 -15.31863,11.64216z" data-paper-data="{&quot;index&quot;:null}" fill="#ffffff" stroke="none" stroke-width="NaN" stroke-linecap="butt"/><path d="M256.54412,154.74308v17.15686h-33.08824v-17.15686z" data-paper-data="{&quot;index&quot;:null}" fill="#55ce93" stroke="none" stroke-width="0" stroke-linecap="butt"/></g></g></svg>