<svg width="343" height="78" viewBox="0 0 343 78" fill="none" xmlns="http://www.w3.org/2000/svg">
<path fill-rule="evenodd" clip-rule="evenodd" d="M16 0C7.16344 0 0 7.16344 0 16V62C0 70.8366 7.16345 78 16 78H327C335.837 78 343 70.8366 343 62V16C343 7.16344 335.837 0 327 0H16ZM91.43 32.98C90.51 34.6 90.05 36.44 90.05 38.5C90.05 40.56 90.51 42.4 91.43 44.02C92.37 45.64 93.64 46.91 95.24 47.83C96.86 48.73 98.67 49.18 100.67 49.18C103.03 49.18 105.08 48.59 106.82 47.41C108.58 46.21 109.81 44.54 110.51 42.4H105.68C105.2 43.4 104.52 44.16 103.64 44.68C102.78 45.18 101.78 45.43 100.64 45.43C99.42 45.43 98.33 45.15 97.37 44.59C96.43 44.01 95.69 43.2 95.15 42.16C94.63 41.1 94.37 39.88 94.37 38.5C94.37 37.1 94.63 35.88 95.15 34.84C95.69 33.8 96.43 33 97.37 32.44C98.33 31.86 99.42 31.57 100.64 31.57C101.78 31.57 102.78 31.82 103.64 32.32C104.52 32.82 105.2 33.57 105.68 34.57H110.51C109.81 32.45 108.58 30.79 106.82 29.59C105.06 28.39 103.01 27.79 100.67 27.79C98.67 27.79 96.86 28.25 95.24 29.17C93.64 30.07 92.37 31.34 91.43 32.98ZM117.157 48.22C118.437 48.92 119.877 49.27 121.477 49.27C123.097 49.27 124.557 48.92 125.857 48.22C127.177 47.5 128.217 46.49 128.977 45.19C129.757 43.89 130.147 42.39 130.147 40.69C130.147 38.99 129.767 37.49 129.007 36.19C128.267 34.89 127.247 33.89 125.947 33.19C124.647 32.47 123.197 32.11 121.597 32.11C119.997 32.11 118.547 32.47 117.247 33.19C115.947 33.89 114.917 34.89 114.157 36.19C113.417 37.49 113.047 38.99 113.047 40.69C113.047 42.39 113.407 43.89 114.127 45.19C114.867 46.49 115.877 47.5 117.157 48.22ZM123.607 45.07C122.947 45.43 122.237 45.61 121.477 45.61C120.277 45.61 119.277 45.19 118.477 44.35C117.697 43.49 117.307 42.27 117.307 40.69C117.307 39.11 117.707 37.9 118.507 37.06C119.327 36.2 120.337 35.77 121.537 35.77C122.737 35.77 123.747 36.2 124.567 37.06C125.407 37.9 125.827 39.11 125.827 40.69C125.827 41.75 125.627 42.65 125.227 43.39C124.827 44.13 124.287 44.69 123.607 45.07ZM158.788 34.03C157.548 32.77 155.908 32.14 153.868 32.14C152.668 32.14 151.548 32.43 150.508 33.01C149.488 33.59 148.708 34.36 148.168 35.32C147.608 34.3 146.818 33.52 145.798 32.98C144.778 32.42 143.618 32.14 142.318 32.14C141.298 32.14 140.358 32.34 139.498 32.74C138.658 33.14 137.968 33.69 137.428 34.39V32.38H133.228V49H137.428V39.82C137.428 38.52 137.758 37.53 138.418 36.85C139.098 36.15 140.018 35.8 141.178 35.8C142.318 35.8 143.218 36.15 143.878 36.85C144.538 37.53 144.868 38.52 144.868 39.82V49H149.068V39.82C149.068 38.52 149.398 37.53 150.058 36.85C150.738 36.15 151.648 35.8 152.788 35.8C153.928 35.8 154.828 36.15 155.488 36.85C156.148 37.53 156.478 38.52 156.478 39.82V49H160.678V39.25C160.678 37.01 160.048 35.27 158.788 34.03ZM190.224 34.03C188.984 32.77 187.344 32.14 185.304 32.14C184.104 32.14 182.984 32.43 181.944 33.01C180.924 33.59 180.144 34.36 179.604 35.32C179.044 34.3 178.254 33.52 177.234 32.98C176.214 32.42 175.054 32.14 173.754 32.14C172.734 32.14 171.794 32.34 170.934 32.74C170.094 33.14 169.404 33.69 168.864 34.39V32.38H164.664V49H168.864V39.82C168.864 38.52 169.194 37.53 169.854 36.85C170.534 36.15 171.454 35.8 172.614 35.8C173.754 35.8 174.654 36.15 175.314 36.85C175.974 37.53 176.304 38.52 176.304 39.82V49H180.504V39.82C180.504 38.52 180.834 37.53 181.494 36.85C182.174 36.15 183.084 35.8 184.224 35.8C185.364 35.8 186.264 36.15 186.924 36.85C187.584 37.53 187.914 38.52 187.914 39.82V49H192.114V39.25C192.114 37.01 191.484 35.27 190.224 34.03ZM211.429 41.95C211.509 41.47 211.549 40.93 211.549 40.33C211.549 38.71 211.199 37.28 210.499 36.04C209.819 34.78 208.849 33.81 207.589 33.13C206.349 32.45 204.939 32.11 203.359 32.11C201.719 32.11 200.269 32.46 199.009 33.16C197.749 33.86 196.769 34.86 196.069 36.16C195.369 37.46 195.019 38.97 195.019 40.69C195.019 42.39 195.369 43.89 196.069 45.19C196.789 46.49 197.779 47.5 199.039 48.22C200.319 48.92 201.759 49.27 203.359 49.27C205.339 49.27 207.009 48.76 208.369 47.74C209.729 46.7 210.649 45.38 211.129 43.78H206.599C205.939 45.12 204.829 45.79 203.269 45.79C202.189 45.79 201.279 45.45 200.539 44.77C199.799 44.09 199.379 43.15 199.279 41.95H211.429ZM206.029 36.55C206.789 37.19 207.179 38.05 207.199 39.13H199.309C199.469 38.01 199.899 37.14 200.599 36.52C201.319 35.88 202.199 35.56 203.239 35.56C204.339 35.56 205.269 35.89 206.029 36.55ZM228.625 34.03C227.405 32.77 225.805 32.14 223.825 32.14C222.785 32.14 221.825 32.35 220.945 32.77C220.085 33.17 219.375 33.73 218.815 34.45V32.38H214.615V49H218.815V39.82C218.815 38.5 219.145 37.49 219.805 36.79C220.485 36.07 221.405 35.71 222.565 35.71C223.705 35.71 224.605 36.07 225.265 36.79C225.925 37.49 226.255 38.5 226.255 39.82V49H230.455V39.25C230.455 37.01 229.845 35.27 228.625 34.03ZM239.339 43.87V35.83H243.059V32.38H239.339V28.27H235.109V32.38H233.129V35.83H235.109V43.84C235.109 47.28 236.879 49 240.419 49H243.059V45.46H241.109C240.469 45.46 240.009 45.34 239.729 45.1C239.469 44.84 239.339 44.43 239.339 43.87ZM251.03 42.19L251.51 27.7H246.98L247.49 42.19H251.03ZM247.46 48.52C247.96 48.98 248.59 49.21 249.35 49.21C250.09 49.21 250.7 48.98 251.18 48.52C251.66 48.04 251.9 47.45 251.9 46.75C251.9 46.05 251.66 45.47 251.18 45.01C250.7 44.53 250.09 44.29 249.35 44.29C248.59 44.29 247.96 44.53 247.46 45.01C246.98 45.47 246.74 46.05 246.74 46.75C246.74 47.45 246.98 48.04 247.46 48.52Z" fill="white"/>
</svg>
