<svg width="343" height="78" viewBox="0 0 343 78" fill="none" xmlns="http://www.w3.org/2000/svg">
<path fill-rule="evenodd" clip-rule="evenodd" d="M16 0C7.16345 0 0 7.16345 0 16V62C0 70.8365 7.16345 78 16 78H327C335.837 78 343 70.8365 343 62V16C343 7.16345 335.837 0 327 0H16ZM150.53 37.69C151.07 36.71 151.34 35.66 151.34 34.54C151.34 33.3 151.05 32.19 150.47 31.21C149.91 30.23 149.06 29.46 147.92 28.9C146.78 28.34 145.4 28.06 143.78 28.06H136.07V49H140.27V40.96H143.78C145.5 40.96 146.92 40.66 148.04 40.06C149.18 39.46 150.01 38.67 150.53 37.69ZM146.18 36.79C145.62 37.31 144.76 37.57 143.6 37.57H140.27V31.48H143.6C145.88 31.48 147.02 32.5 147.02 34.54C147.02 35.5 146.74 36.25 146.18 36.79ZM157.382 48.22C158.662 48.92 160.102 49.27 161.702 49.27C163.322 49.27 164.782 48.92 166.082 48.22C167.402 47.5 168.442 46.49 169.202 45.19C169.982 43.89 170.372 42.39 170.372 40.69C170.372 38.99 169.992 37.49 169.232 36.19C168.492 34.89 167.472 33.89 166.172 33.19C164.872 32.47 163.422 32.11 161.822 32.11C160.222 32.11 158.772 32.47 157.472 33.19C156.172 33.89 155.142 34.89 154.382 36.19C153.642 37.49 153.272 38.99 153.272 40.69C153.272 42.39 153.632 43.89 154.352 45.19C155.092 46.49 156.102 47.5 157.382 48.22ZM163.832 45.07C163.172 45.43 162.462 45.61 161.702 45.61C160.502 45.61 159.502 45.19 158.702 44.35C157.922 43.49 157.532 42.27 157.532 40.69C157.532 39.11 157.932 37.9 158.732 37.06C159.552 36.2 160.562 35.77 161.762 35.77C162.962 35.77 163.972 36.2 164.792 37.06C165.632 37.9 166.052 39.11 166.052 40.69C166.052 41.75 165.852 42.65 165.452 43.39C165.052 44.13 164.512 44.69 163.832 45.07ZM176.153 48.55C177.233 49.03 178.453 49.27 179.813 49.27C181.133 49.27 182.283 49.06 183.263 48.64C184.263 48.2 185.023 47.6 185.543 46.84C186.083 46.08 186.353 45.22 186.353 44.26C186.333 43.16 186.033 42.28 185.453 41.62C184.893 40.94 184.223 40.44 183.443 40.12C182.663 39.8 181.673 39.49 180.473 39.19C179.293 38.89 178.423 38.6 177.863 38.32C177.303 38.02 177.023 37.59 177.023 37.03C177.023 36.53 177.223 36.14 177.623 35.86C178.043 35.58 178.633 35.44 179.393 35.44C180.213 35.44 180.863 35.64 181.343 36.04C181.843 36.42 182.123 36.94 182.183 37.6H186.203C186.083 35.92 185.433 34.59 184.253 33.61C183.073 32.61 181.493 32.11 179.513 32.11C178.173 32.11 177.003 32.33 176.003 32.77C175.023 33.21 174.263 33.81 173.723 34.57C173.203 35.33 172.943 36.17 172.943 37.09C172.943 38.21 173.223 39.1 173.783 39.76C174.363 40.42 175.043 40.91 175.823 41.23C176.623 41.55 177.643 41.86 178.883 42.16C180.083 42.48 180.953 42.78 181.493 43.06C182.053 43.32 182.333 43.72 182.333 44.26C182.333 44.76 182.103 45.17 181.643 45.49C181.203 45.81 180.583 45.97 179.783 45.97C178.963 45.97 178.273 45.76 177.713 45.34C177.173 44.92 176.863 44.39 176.783 43.75H172.553C172.613 44.77 172.953 45.7 173.573 46.54C174.213 47.38 175.073 48.05 176.153 48.55ZM194.69 43.87V35.83H198.411V32.38H194.69V28.27H190.46V32.38H188.48V35.83H190.46V43.84C190.46 47.28 192.23 49 195.771 49H198.411V45.46H196.46C195.82 45.46 195.36 45.34 195.08 45.1C194.82 44.84 194.69 44.43 194.69 43.87ZM206.381 42.19L206.861 27.7H202.331L202.841 42.19H206.381ZM202.811 48.52C203.311 48.98 203.941 49.21 204.701 49.21C205.441 49.21 206.051 48.98 206.531 48.52C207.011 48.04 207.251 47.45 207.251 46.75C207.251 46.05 207.011 45.47 206.531 45.01C206.051 44.53 205.441 44.29 204.701 44.29C203.941 44.29 203.311 44.53 202.811 45.01C202.331 45.47 202.091 46.05 202.091 46.75C202.091 47.45 202.331 48.04 202.811 48.52Z" fill="white"/>
</svg>
