<svg version="1.1" xmlns="http://www.w3.org/2000/svg" xmlns:xlink="http://www.w3.org/1999/xlink" width="206" height="212.50007" viewBox="0,0,206,212.50007"><g transform="translate(-137,-70.5)"><g data-paper-data="{&quot;isPaintingLayer&quot;:true}" fill-rule="nonzero" stroke-linejoin="miter" stroke-miterlimit="10" stroke-dasharray="" stroke-dashoffset="0" style="mix-blend-mode: normal"><path d="M137,180.00007c0,-56.88533 46.11467,-103 103,-103c56.88533,0 103,46.11467 103,103c0,56.88533 -46.11467,103 -103,103c-56.88533,0 -103,-46.11467 -103,-103z" data-paper-data="{&quot;index&quot;:null}" fill="#86ffc4" stroke="none" stroke-width="0" stroke-linecap="butt"/><path d="M183.44882,184.27559c0,-31.60418 25.62023,-57.22441 57.22441,-57.22441c31.60418,0 57.22441,25.62023 57.22441,57.22441c0,31.60418 -25.62023,57.22441 -57.22441,57.22441c-31.60418,0 -57.22441,-25.62023 -57.22441,-57.22441z" data-paper-data="{&quot;index&quot;:null}" fill="#55ce93" stroke="none" stroke-width="0" stroke-linecap="butt"/><path d="M269.62205,110.22047c0,21.93701 -12.96083,39.72047 -28.94882,39.72047c-15.98799,0 -28.94882,-17.78346 -28.94882,-39.72047c0,-21.93701 12.96083,-39.72047 28.94882,-39.72047c15.98799,0 28.94882,17.78346 28.94882,39.72047z" data-paper-data="{&quot;index&quot;:null}" fill="#55ce93" stroke="none" stroke-width="0" stroke-linecap="butt"/><path d="M191.52756,123.2811l17.50393,-9.4252" data-paper-data="{&quot;index&quot;:null}" fill="none" stroke="none" stroke-width="0" stroke-linecap="round"/><path d="M171.33071,130.01339l68.66929,-24.23622l68.6693,21.54331" data-paper-data="{&quot;index&quot;:null}" fill="none" stroke="#55ce93" stroke-width="15" stroke-linecap="round"/><path d="M240.67323,172.29214c-9.29534,0 -16.83071,-5.72687 -16.83071,-12.79134c0,-7.06447 7.53536,-12.79134 16.83071,-12.79134c9.29534,0 16.83071,5.72687 16.83071,12.79134c0,7.06447 -7.53537,12.79134 -16.83071,12.79134z" data-paper-data="{&quot;index&quot;:null}" fill="#ffffff" stroke="none" stroke-width="NaN" stroke-linecap="butt"/><path d="M258.17716,159.09687v18.85039h-36.35433v-18.85039z" data-paper-data="{&quot;index&quot;:null}" fill="#55ce93" stroke="none" stroke-width="0" stroke-linecap="butt"/></g></g></svg>