<svg version="1.1" xmlns="http://www.w3.org/2000/svg" xmlns:xlink="http://www.w3.org/1999/xlink" width="206" height="206" viewBox="0,0,206,206"><g transform="translate(-137,-77.00007)"><g data-paper-data="{&quot;isPaintingLayer&quot;:true}" fill-rule="nonzero" stroke-linejoin="miter" stroke-miterlimit="10" stroke-dasharray="" stroke-dashoffset="0" style="mix-blend-mode: normal"><path d="M240,77.00007c56.88533,0 103,46.11467 103,103c0,56.88533 -46.11467,103 -103,103c-56.88533,0 -103,-46.11467 -103,-103c0,-56.88533 46.11467,-103 103,-103z" data-paper-data="{&quot;index&quot;:null}" fill="#86ffc4" stroke="none" stroke-width="0" stroke-linecap="butt"/><path d="M240.5,108.10001c23.47211,0 42.5,19.02789 42.5,42.5c0,23.47211 -19.02789,42.5 -42.5,42.5c-23.47211,0 -42.5,-19.02789 -42.5,-42.5c0,-23.47211 19.02789,-42.5 42.5,-42.5z" data-paper-data="{&quot;index&quot;:null}" fill="#55ce93" stroke="none" stroke-width="0" stroke-linecap="butt"/><path d="M240.5,235.10001c-11.87412,0 -21.5,-13.2076 -21.5,-29.5c0,-16.2924 9.62588,-29.5 21.5,-29.5c11.87412,0 21.5,13.2076 21.5,29.5c0,16.2924 -9.62588,29.5 -21.5,29.5z" data-paper-data="{&quot;index&quot;:null}" fill="#55ce93" stroke="none" stroke-width="0" stroke-linecap="butt"/><path d="M204,195.90001l13,7" fill="none" stroke="none" stroke-width="0" stroke-linecap="round"/><path d="M291,192.90001l-51,16l-51,-18" fill="none" stroke="#55ce93" stroke-width="15" stroke-linecap="round"/><path d="M224,251.90001l17,-45l19,44" fill="none" stroke="#55ce93" stroke-width="15" stroke-linecap="round"/><path d="M253,169c0,5.24671 -5.59644,9.5 -12.5,9.5c-6.90356,0 -12.5,-4.25329 -12.5,-9.5c0,-5.24671 5.59644,-9.5 12.5,-9.5c6.90356,0 12.5,4.25329 12.5,9.5z" fill="#ffffff" stroke="none" stroke-width="NaN" stroke-linecap="butt"/><path d="M226.5,169.3v-14h27v14z" fill="#55ce93" stroke="none" stroke-width="0" stroke-linecap="butt"/></g></g></svg>