<svg version="1.1" xmlns="http://www.w3.org/2000/svg" xmlns:xlink="http://www.w3.org/1999/xlink" width="206" height="206" viewBox="0,0,206,206"><g transform="translate(-137,-77.00007)"><g data-paper-data="{&quot;isPaintingLayer&quot;:true}" fill-rule="nonzero" stroke-linejoin="miter" stroke-miterlimit="10" stroke-dasharray="" stroke-dashoffset="0" style="mix-blend-mode: normal"><path d="M240,77.00007c56.88533,0 103,46.11467 103,103c0,56.88533 -46.11467,103 -103,103c-56.88533,0 -103,-46.11467 -103,-103c0,-56.88533 46.11467,-103 103,-103z" data-paper-data="{&quot;index&quot;:null}" fill="#86ffc4" stroke="none" stroke-width="0" stroke-linecap="butt"/><path d="M279.76009,128.08799c0,0 0,5.98476 0,10.50975c0,3.19187 0,9.14365 0,15.24247c0,9.66723 0,19.70386 0,19.70386c0,4.20714 -1.52964,7.81325 -4.58889,10.78674c-3.05928,2.97347 -6.73695,4.46017 -11.06549,4.46017h-46.76799c-4.32856,0 -8.00624,-1.48674 -11.06554,-4.46017c-3.0593,-2.97347 -4.58888,-6.57959 -4.58888,-10.78674c0,0 0,-4.38257 0,-10.34445c0,-4.41582 0,-9.69806 0,-14.70765c0,-7.50271 0,-14.39385 0,-16.84693c0,-1.83632 0,-3.55706 0,-3.55706c0,-4.17555 1.52964,-7.7816 4.58888,-10.75508c3.0593,-2.97347 6.73695,-4.4602 11.06554,-4.4602h46.80055c4.29605,0 8.00619,1.48676 11.06549,4.4602c3.05928,2.94187 4.58893,6.54795 4.55638,10.75508z" fill="#55ce93" stroke="none" stroke-width="0" stroke-linecap="butt"/><path d="M240.5,235.10001c-11.87412,0 -21.5,-13.2076 -21.5,-29.5c0,-16.2924 9.62588,-29.5 21.5,-29.5c11.87412,0 21.5,13.2076 21.5,29.5c0,16.2924 -9.62588,29.5 -21.5,29.5z" data-paper-data="{&quot;index&quot;:null}" fill="#55ce93" stroke="none" stroke-width="0" stroke-linecap="butt"/><path d="M204,195.90001l13,7" fill="none" stroke="none" stroke-width="0" stroke-linecap="round"/><path d="M291,192.90001l-51,16l-51,-18" fill="none" stroke="#55ce93" stroke-width="15" stroke-linecap="round"/><path d="M224,251.90001l17,-45l19,44" fill="none" stroke="#55ce93" stroke-width="15" stroke-linecap="round"/><path d="M253,169c0,5.24671 -5.59644,9.5 -12.5,9.5c-6.90356,0 -12.5,-4.25329 -12.5,-9.5c0,-5.24671 5.59644,-9.5 12.5,-9.5c6.90356,0 12.5,4.25329 12.5,9.5z" fill="#ffffff" stroke="none" stroke-width="NaN" stroke-linecap="butt"/><path d="M226.5,169.3v-14h27v14z" fill="#55ce93" stroke="none" stroke-width="0" stroke-linecap="butt"/></g></g></svg>